<?xml version="1.0" encoding="UTF-8" standalone="no"?>
<svg
   xmlns:dc="http://purl.org/dc/elements/1.1/"
   xmlns:cc="http://creativecommons.org/ns#"
   xmlns:rdf="http://www.w3.org/1999/02/22-rdf-syntax-ns#"
   xmlns:svg="http://www.w3.org/2000/svg"
   xmlns="http://www.w3.org/2000/svg"
   version="1.1"
   id="svg2"
   viewBox="0 0 744.09448819 1052.3622047"
   height="297mm"
   width="210mm">
  <defs
     id="defs4" />
  <metadata
     id="metadata7">
    <rdf:RDF>
      <cc:Work
         rdf:about="">
        <dc:format>image/svg+xml</dc:format>
        <dc:type
           rdf:resource="http://purl.org/dc/dcmitype/StillImage" />
        <dc:title></dc:title>
      </cc:Work>
    </rdf:RDF>
  </metadata>
  <g
     id="layer1">
    <g
       transform="matrix(4.629173,0,0,5.2317434,-948.50024,-2324.7556)"
       id="layer1-3">
      <path
         id="path6961"
         d="m 285.17869,581.09001 -68.21401,0.0637 c -0.63389,-0.85881 -1.56249,-1.4958 -2.59193,-1.77797 -1.02944,-0.28217 -2.15306,-0.20771 -3.13626,0.20785 -0.9832,0.41556 -1.81961,1.16953 -2.33462,2.10448 -0.51501,0.93495 -0.70528,2.04484 -0.53108,3.09794 0.14887,0.89995 0.56085,1.75476 1.17206,2.43188 0.61121,0.67711 1.41952,1.17418 2.29958,1.4141 0.88005,0.23992 1.8288,0.22188 2.69909,-0.0513 0.87029,-0.27322 1.65912,-0.80067 2.24413,-1.50054 l 68.75112,0.12745"
         style="fill:#00ab00;fill-opacity:1;fill-rule:evenodd;stroke:#00ab00;stroke-width:0.59815842px;stroke-linecap:butt;stroke-linejoin:miter;stroke-opacity:1" />
      <path
         id="path6961-2"
         d="m 285.0868,581.09099 68.21401,0.0637 c 0.63389,-0.85881 1.56249,-1.4958 2.59194,-1.77797 1.02944,-0.28217 2.15305,-0.2077 3.13625,0.20786 0.9832,0.41556 1.81962,1.16952 2.33463,2.10448 0.51501,0.93495 0.70527,2.04484 0.53107,3.09794 -0.14887,0.89994 -0.56085,1.75476 -1.17206,2.43187 -0.61121,0.67712 -1.41952,1.17418 -2.29958,1.41411 -0.88005,0.23992 -1.8288,0.22187 -2.69909,-0.0513 -0.87029,-0.27322 -1.65912,-0.80067 -2.24413,-1.50054 l -68.75112,0.12745"
         style="fill:#00ab00;fill-opacity:1;fill-rule:evenodd;stroke:#00ab00;stroke-width:0.59815842px;stroke-linecap:butt;stroke-linejoin:miter;stroke-opacity:1" />
      <path
         id="path7001"
         d="m 251.07143,580.75506 0,-53.39286 21.42857,0"
         style="fill:none;fill-rule:evenodd;stroke:#00ab00;stroke-width:1px;stroke-linecap:butt;stroke-linejoin:miter;stroke-opacity:1" />
      <path
         id="path7005"
         d="m 272.14286,526.82649 -0.17858,54.28571"
         style="fill:none;fill-rule:evenodd;stroke:#00ab00;stroke-width:1px;stroke-linecap:butt;stroke-linejoin:miter;stroke-opacity:1" />
      <path
         id="path7036"
         d="m 285.94145,580.75506 0.17857,-39.64286 14.46428,0 -0.17857,39.91072"
         style="fill:none;fill-rule:evenodd;stroke:#00ab00;stroke-width:1px;stroke-linecap:butt;stroke-linejoin:miter;stroke-opacity:1" />
      <path
         id="path7044"
         d="m 312.55292,580.88883 -0.1046,-13.90492 12.06318,0 -0.17857,14.08349"
         style="fill:none;fill-rule:evenodd;stroke:#00ab00;stroke-width:1px;stroke-linecap:butt;stroke-linejoin:miter;stroke-opacity:1" />
      <path
         id="path7048"
         d="m 333.94208,580.79954 0.67095,-68.36387 14.79515,0.20921 0.0306,68.22862"
         style="fill:none;fill-rule:evenodd;stroke:#00ab00;stroke-width:1px;stroke-linecap:butt;stroke-linejoin:miter;stroke-opacity:1" />
      <path
         id="path7052"
         d="m 222.73864,581.12604 0,-26.76904 14.89975,0 0,26.51651"
         style="fill:none;fill-rule:evenodd;stroke:#00ab00;stroke-width:1px;stroke-linecap:butt;stroke-linejoin:miter;stroke-opacity:1" />
      <path
         id="path7056"
         d="m 229.30463,542.74024 31.56727,-43.18401 31.56726,23.73858 23.23351,26.01143 25.75889,-64.64977"
         style="fill:none;fill-rule:evenodd;stroke:#00ab00;stroke-width:1px;stroke-linecap:butt;stroke-linejoin:miter;stroke-opacity:1" />
      <ellipse
         ry="2.9198844"
         rx="2.8463824"
         cy="542.25415"
         cx="229.59639"
         id="path7099"
         style="opacity:1;fill:#ffffff;fill-opacity:1;stroke:#00ab00;stroke-width:1.25534189;stroke-opacity:1" />
      <ellipse
         ry="2.9198844"
         rx="2.8463824"
         cy="500.56638"
         cx="261.37698"
         id="path7099-9"
         style="opacity:1;fill:#ffffff;fill-opacity:1;stroke:#00ab00;stroke-width:1.25534189;stroke-opacity:1" />
      <ellipse
         ry="2.9198844"
         rx="2.8463824"
         cy="523.79987"
         cx="292.43915"
         id="path7099-2"
         style="opacity:1;fill:#ffffff;fill-opacity:1;stroke:#00ab00;stroke-width:1.25534189;stroke-opacity:1" />
      <ellipse
         ry="2.9198844"
         rx="2.8463824"
         cy="548.04358"
         cx="315.16757"
         id="path7099-0"
         style="opacity:1;fill:#ffffff;fill-opacity:1;stroke:#00ab00;stroke-width:1.25534189;stroke-opacity:1" />
      <ellipse
         ry="2.9198844"
         rx="2.8463824"
         cy="485.91916"
         cx="340.92648"
         id="path7099-23"
         style="opacity:1;fill:#ffffff;fill-opacity:1;stroke:#00ab00;stroke-width:1.25534189;stroke-opacity:1" />
    </g>
  </g>
</svg>
