<?xml version="1.0" encoding="iso-8859-1"?>
<!-- Generator: Adobe Illustrator 19.0.0, SVG Export Plug-In . SVG Version: 6.00 Build 0)  -->
<svg version="1.1" id="Layer_1" xmlns="http://www.w3.org/2000/svg" xmlns:xlink="http://www.w3.org/1999/xlink" x="0px" y="0px"
	 viewBox="0 0 512.001 512.001" style="enable-background:new 0 0 512.001 512.001;" xml:space="preserve">
<g>
	<g>
		<path d="M470.656,170.317H364.298V63.958c0-10.345-8.387-18.732-18.732-18.732h-54.269l13.25-13.25
			c7.315-7.314,7.315-19.175,0-26.49c-7.313-7.315-19.174-7.315-26.49,0l-39.74,39.74H41.346c-10.345,0-18.732,8.387-18.732,18.732
			v304.22c0,10.345,8.387,18.732,18.732,18.732h106.359v106.359c0,10.345,8.387,18.732,18.732,18.732h304.219
			c10.345,0,18.732-8.387,18.732-18.732v-304.22C489.388,178.704,481.001,170.317,470.656,170.317z M60.079,349.447V82.69h140.774
			l-20.646,20.646c-7.315,7.315-7.315,19.175,0,26.49c7.314,7.315,19.175,7.315,26.49,0l47.136-47.136h73.001
			c0,9.844,0,257.03,0,266.757C317.114,349.447,69.926,349.447,60.079,349.447z M185.168,474.537V386.91h160.397
			c10.345,0,18.732-8.387,18.732-18.732V207.78h87.627v266.757H185.168z"/>
	</g>
</g>
<g>
</g>
<g>
</g>
<g>
</g>
<g>
</g>
<g>
</g>
<g>
</g>
<g>
</g>
<g>
</g>
<g>
</g>
<g>
</g>
<g>
</g>
<g>
</g>
<g>
</g>
<g>
</g>
<g>
</g>
</svg>
